<svg id="years" xmlns="http://www.w3.org/2000/svg" width="46.372" height="60" viewBox="0 0 46.372 60">
  <path id="Path_41178" data-name="Path 41178" d="M89.97,27.313A26.6,26.6,0,0,0,99.879,7.654h.814a3.831,3.831,0,0,0,3.827-3.827V.937A.938.938,0,0,0,103.582,0h-44.5a.938.938,0,0,0-.937.937V3.827a3.831,3.831,0,0,0,3.827,3.827h.814A26.6,26.6,0,0,0,72.7,27.312a3.4,3.4,0,0,1,0,5.375,26.6,26.6,0,0,0-9.909,19.658h-.814a3.831,3.831,0,0,0-3.827,3.827v2.889a.938.938,0,0,0,.937.938h44.5a.938.938,0,0,0,.938-.937V56.173a3.831,3.831,0,0,0-3.827-3.827h-.814A26.6,26.6,0,0,0,89.97,32.687a3.4,3.4,0,0,1,0-5.375ZM60.023,3.827V1.875h42.621V3.827a1.954,1.954,0,0,1-1.952,1.952H61.975A1.954,1.954,0,0,1,60.023,3.827Zm42.622,52.346v1.952H60.023V56.173a1.954,1.954,0,0,1,1.952-1.952h38.718A1.954,1.954,0,0,1,102.645,56.173ZM81.334,46.441a8.407,8.407,0,0,0,1.337.7,13.782,13.782,0,0,1,5.924,5.2H74.073A13.782,13.782,0,0,1,80,47.146,8.411,8.411,0,0,0,81.334,46.441ZM86.778,30a5.2,5.2,0,0,0,2.059,4.182A24.633,24.633,0,0,1,98,52.346h-7.2a16.2,16.2,0,0,0-7.412-6.931,6.517,6.517,0,0,1-1.122-.6V40.456a.938.938,0,0,0-1.875,0v4.357a6.523,6.523,0,0,1-1.121.6,16.2,16.2,0,0,0-7.412,6.93h-7.2A24.633,24.633,0,0,1,73.83,34.182a5.275,5.275,0,0,0,0-8.363A24.632,24.632,0,0,1,64.664,7.654H98a24.633,24.633,0,0,1-9.167,18.165A5.2,5.2,0,0,0,86.778,30Zm-4.506,1.679v1.273a.938.938,0,0,1-1.875,0V31.679a.938.938,0,0,1,1.875,0Zm9.273-17.716c-4.43-3.24-7.715-1.665-10.892-.141-2.349,1.126-4.777,2.291-7.93,1.673a.938.938,0,0,0-.995,1.384,16.338,16.338,0,0,0,7.547,7.161,6.528,6.528,0,0,1,1.121.6v2.352a.938.938,0,0,0,1.875,0V24.643a6.518,6.518,0,0,1,1.122-.6c3.442-1.437,6.522-4.692,8.452-8.932a.937.937,0,0,0-.3-1.145ZM82.671,22.31a8.4,8.4,0,0,0-1.337.7A8.4,8.4,0,0,0,80,22.309a13.547,13.547,0,0,1-5.624-4.766,15.586,15.586,0,0,0,7.091-2.031c2.857-1.37,5.151-2.47,8.335-.471A14.948,14.948,0,0,1,82.671,22.31Z" transform="translate(-58.148 0)" fill="#e31e24"/>
</svg>
