<svg id="fran" xmlns="http://www.w3.org/2000/svg" width="60.425" height="60" viewBox="0 0 60.425 60">
  <g id="Group_49504" data-name="Group 49504" transform="translate(0)">
    <path id="Path_41179" data-name="Path 41179" d="M42.209,14.43a2.119,2.119,0,0,0,2.114-2.114V8.709H40.095v3.606a2.125,2.125,0,0,0,2.114,2.114Zm-28,7.37a.887.887,0,1,1,0,1.773H6.614V34.2a.885.885,0,0,1-1.77,0V22.686a.886.886,0,0,1,.887-.887ZM55.581,34.2a.885.885,0,0,1-1.77,0V23.573H46.22a.887.887,0,1,1,0-1.773H54.7a.885.885,0,0,1,.883.887ZM14.332,7.826a.88.88,0,0,1,.1-.4l2.1-5.072a.9.9,0,0,1,.853-.549h25.7a.884.884,0,0,1,.843.616l2.071,5a.863.863,0,0,1,.1.4v4.49a3.9,3.9,0,0,1-3,3.78v4.958a.885.885,0,1,1-1.77,0V16.1a3.906,3.906,0,0,1-2.114-1.318,3.874,3.874,0,0,1-6,0,3.874,3.874,0,0,1-6,0,3.874,3.874,0,0,1-6,0A3.906,3.906,0,0,1,19.1,16.1V29.919H31.484v-10a.882.882,0,0,1,.883-.883H37.9a.885.885,0,0,1,.887.883v10h2.539V25.065a.885.885,0,1,1,1.77,0v5.741a.883.883,0,0,1-.887.883H18.216a.885.885,0,0,1-.887-.883V16.1a3.9,3.9,0,0,1-3-3.78V7.826Zm29.557-.887L42.494,3.571H17.931L16.537,6.939ZM34.438,42.361a.88.88,0,0,1,.1-.4l1.69-4.081a.9.9,0,0,1,.85-.549H57.822a.884.884,0,0,1,.843.616l1.663,4.014a.861.861,0,0,1,.1.4v3.623A3.314,3.314,0,0,1,58,49.172v3.483a.882.882,0,1,1-1.763,0V49.172a3.315,3.315,0,0,1-1.539-.94,3.3,3.3,0,0,1-4.844,0,3.3,3.3,0,0,1-4.844,0,3.3,3.3,0,0,1-4.844,0,3.315,3.315,0,0,1-1.539.94V60.031h9.662V52.126a.882.882,0,0,1,.883-.883h4.466a.883.883,0,0,1,.887.883v7.905h1.713V56.666a.882.882,0,1,1,1.763,0v4.249a.885.885,0,0,1-.88.887H37.743a.912.912,0,0,1-.88-.963V49.172a3.314,3.314,0,0,1-2.425-3.188V42.361Zm23.783-.887L57.234,39.1h-19.6l-.987,2.379Zm.435,4.51v-2.74H55.581v2.74a1.537,1.537,0,0,0,3.074,0Zm-4.844,0v-2.74H50.74v2.74a1.536,1.536,0,0,0,3.071,0Zm-4.844,0v-2.74H45.9v2.74a1.536,1.536,0,0,0,3.071,0Zm-4.844,0v-2.74H41.052v2.74a1.535,1.535,0,0,0,3.071,0Zm-4.841,0v-2.74H36.208v2.74a1.537,1.537,0,0,0,3.074,0Zm1.944,5.259h4.466a.882.882,0,0,1,.883.883v4.466a.885.885,0,0,1-.883.887H41.226a.888.888,0,0,1-.887-.887V52.126A.885.885,0,0,1,41.226,51.243Zm3.58,1.77h-2.7v2.7h2.7Zm7.949,7.019V53.013h-2.7v7.019ZM0,42.361a.88.88,0,0,1,.1-.4l1.689-4.081a.893.893,0,0,1,.857-.549H23.384a.885.885,0,0,1,.846.616l1.659,4.014a.863.863,0,0,1,.1.4v3.623a3.314,3.314,0,0,1-2.426,3.188v3.483a.881.881,0,1,1-1.763,0V49.172a3.325,3.325,0,0,1-1.542-.94,3.3,3.3,0,0,1-4.844,0,3.3,3.3,0,0,1-4.844,0,3.292,3.292,0,0,1-4.841,0,3.342,3.342,0,0,1-1.542.94V60.031H13.85V52.126a.883.883,0,0,1,.887-.883H19.2a.882.882,0,0,1,.883.883v7.905H21.8V56.666a.881.881,0,1,1,1.763,0v4.249a.9.9,0,0,1-.9.887H3.309a.912.912,0,0,1-.883-.963V49.172A3.314,3.314,0,0,1,0,45.984Zm23.783-.887L22.8,39.1H3.192l-.984,2.379Zm.438,4.51v-2.74H21.146v2.74a1.537,1.537,0,0,0,3.074,0Zm-4.844,0v-2.74H16.3v2.74a1.537,1.537,0,0,0,3.074,0Zm-4.844,0v-2.74H11.458v2.74a1.537,1.537,0,0,0,3.074,0Zm-4.844,0v-2.74H6.614v2.74a1.537,1.537,0,0,0,3.074,0Zm-4.844,0v-2.74H1.77v2.74a1.537,1.537,0,0,0,3.074,0Zm1.944,5.259h4.466a.885.885,0,0,1,.887.883v4.466a.888.888,0,0,1-.887.887H6.788a.888.888,0,0,1-.887-.887V52.126A.885.885,0,0,1,6.788,51.243Zm3.583,1.77h-2.7v2.7h2.7Zm7.945,7.019V53.013h-2.7v7.019ZM38.325,12.316V8.709H34.1v3.606a2.114,2.114,0,0,0,4.229,0Zm-6,0V8.709H28.1v3.606a2.114,2.114,0,0,0,4.229,0Zm-6,0V8.709H22.1v3.606a2.114,2.114,0,0,0,4.229,0Zm-6,0V8.709H16.1v3.606a2.114,2.114,0,0,0,4.229,0Zm2.195,6.721h5.533a.885.885,0,0,1,.887.883v5.533a.885.885,0,0,1-.887.883H22.525a.882.882,0,0,1-.883-.883V19.92A.882.882,0,0,1,22.525,19.037Zm4.647,1.77h-3.76v3.76h3.76Zm9.842,9.113V20.806h-3.76v9.113Z" transform="translate(0 -1.801)" fill="#e31e24"/>
  </g>
</svg>
