<svg id="global" xmlns="http://www.w3.org/2000/svg" width="56.956" height="60.59" viewBox="0 0 56.956 60.59">
  <path id="Path_27106" data-name="Path 27106" d="M70.162,21.248a12.79,12.79,0,0,0,2.079-6.14,6.923,6.923,0,0,0-1.882-5.029A6.606,6.606,0,0,0,65.606,8h-.075A6.662,6.662,0,0,0,61.223,9.56,28.494,28.494,0,0,0,31.951,6.228a6.923,6.923,0,0,0-1.859-4.144A6.6,6.6,0,0,0,25.338,0h-.075a6.718,6.718,0,0,0-6.717,6.718,13.457,13.457,0,0,0,2.92,7.766,28.383,28.383,0,0,0-4.228,7.424.886.886,0,1,0,1.655.635,26.6,26.6,0,0,1,3.674-6.586,6.233,6.233,0,0,0-.035.628v4.307A2.27,2.27,0,0,0,26.1,22.757l3.177-2.206a5.26,5.26,0,0,1,3.013-.943h4.088a5.9,5.9,0,0,0,4.2-1.739l4.034-4.034a3.671,3.671,0,0,0,.17-4.994L42.816,6.588a1.4,1.4,0,0,1-.322-1.145c.446-.022.892-.036,1.339-.036A26.777,26.777,0,0,1,60.02,10.872a6.664,6.664,0,0,0-1.206,3.841,10.739,10.739,0,0,0,.623,3.519,10.392,10.392,0,0,0,.818,5.66l1.724,3.839a5.734,5.734,0,0,0,8.43,2.409l.055-.037q.074,1,.074,2.009a26.705,26.705,0,1,1-52.707-6.118.886.886,0,0,0-1.726-.4,28.615,28.615,0,0,0-.751,6.522A28.478,28.478,0,1,0,70.162,21.248ZM21.786,3.2a4.911,4.911,0,0,1,3.478-1.43h.055A4.846,4.846,0,0,1,28.806,3.3a5.142,5.142,0,0,1,1.4,3.735c-.165,3.949-3.339,7.5-4.7,8.849a.345.345,0,0,1-.484,0c-1.414-1.4-4.7-5.1-4.7-9.172A4.911,4.911,0,0,1,21.786,3.2ZM41.48,7.753l1.965,2.253a1.893,1.893,0,0,1-.088,2.576l-4.034,4.034a4.136,4.136,0,0,1-2.944,1.22H32.289a7.024,7.024,0,0,0-4.024,1.26L25.088,21.3a.5.5,0,0,1-.784-.41V17.53a2.124,2.124,0,0,0,2.45-.382c1.709-1.694,4.5-4.988,5.107-8.911a26.729,26.729,0,0,1,8.844-2.645A3.172,3.172,0,0,0,41.48,7.753ZM65.532,9.767h.055A4.846,4.846,0,0,1,69.074,11.3a5.142,5.142,0,0,1,1.4,3.735c-.165,3.949-3.339,7.5-4.7,8.85a.345.345,0,0,1-.484,0c-1.414-1.4-4.7-5.1-4.7-9.172a4.945,4.945,0,0,1,4.945-4.946Zm3.889,18.9A3.961,3.961,0,0,1,63.6,27l-1.724-3.839a8.658,8.658,0,0,1-.385-1.03,22.675,22.675,0,0,0,2.556,3.008,2.123,2.123,0,0,0,2.979,0,23.21,23.21,0,0,0,1.918-2.152,26.39,26.39,0,0,1,1.3,5.126Z" transform="translate(-15.355 0)" fill="#e31e24"/>
  <path id="Path_27107" data-name="Path 27107" d="M411.444,101.941a3.683,3.683,0,1,0-3.683-3.683A3.687,3.687,0,0,0,411.444,101.941Zm0-5.62a1.937,1.937,0,1,1-1.937,1.937A1.939,1.939,0,0,1,411.444,96.321Z" transform="translate(-361.164 -83.359)" fill="#e31e24"/>
  <path id="Path_27108" data-name="Path 27108" d="M171.464,148.2a6.5,6.5,0,0,0-4.682-2.052h-.073a6.62,6.62,0,0,0-6.481,5.284,5.974,5.974,0,0,0-5.131,2.513l-2.933,4.143a5.29,5.29,0,0,0-.4,5.455,6.6,6.6,0,0,0-.571,2.693c0,3.845,2.356,7.228,4.242,9.32l-.19,5.159a3.65,3.65,0,0,0,5.727,3.13L169,178.266a13.036,13.036,0,0,0,3.211-3.183l2.425-3.426a.873.873,0,0,0-1.425-1.009l-2.425,3.426a11.3,11.3,0,0,1-2.783,2.758l-8.034,5.581a1.9,1.9,0,0,1-2.986-1.632l.142-3.785a2.082,2.082,0,0,0,2.144-.488c1.842-1.825,4.959-5.536,5.14-9.882a6.819,6.819,0,0,0-1.853-4.952,6.572,6.572,0,0,0-9.407-.14c-.059.058-.115.118-.172.179a3.548,3.548,0,0,1,.608-2.615l2.933-4.143a4.228,4.228,0,0,1,3.582-1.778c.188,4.321,3.276,8.013,5.14,9.86a2.09,2.09,0,0,0,2.934,0,22.172,22.172,0,0,0,2.635-3.135l4.529,3.206a2.622,2.622,0,0,1,.625,3.654l-.637.9a.873.873,0,1,0,1.425,1.009l.637-.9a4.367,4.367,0,0,0-1.041-6.088l-4.617-3.269a12.043,12.043,0,0,0,1.585-5.259A6.817,6.817,0,0,0,171.464,148.2Zm-13.659,13.165h.054a4.773,4.773,0,0,1,3.434,1.508,5.064,5.064,0,0,1,1.375,3.678c-.162,3.889-3.288,7.39-4.625,8.715a.339.339,0,0,1-.476,0c-1.393-1.38-4.632-5.023-4.632-9.032a4.87,4.87,0,0,1,4.87-4.87Zm9.143.429a.339.339,0,0,1-.476,0c-1.393-1.38-4.632-5.023-4.632-9.032a4.87,4.87,0,0,1,4.87-4.87h.054A4.772,4.772,0,0,1,170.2,149.4a5.063,5.063,0,0,1,1.375,3.678C171.411,156.972,168.285,160.472,166.949,161.8Z" transform="translate(-134.886 -128.195)" fill="#e31e24"/>
  <path id="Path_27109" data-name="Path 27109" d="M259.271,175.979a.873.873,0,0,0-.873.873,1.935,1.935,0,1,1-1.553-1.9.873.873,0,0,0,.344-1.712,3.683,3.683,0,1,0,2.954,3.611A.873.873,0,0,0,259.271,175.979Z" transform="translate(-224.617 -152.632)" fill="#e31e24"/>
  <path id="Path_27110" data-name="Path 27110" d="M180.051,296.144a3.683,3.683,0,1,0-3.683-3.683A3.687,3.687,0,0,0,180.051,296.144Zm0-5.62a1.937,1.937,0,1,1-1.937,1.937A1.939,1.939,0,0,1,180.051,290.523Z" transform="translate(-157.27 -254.531)" fill="#e31e24"/>
  <path id="Path_27111" data-name="Path 27111" d="M74.854,30.7a3.683,3.683,0,1,0-3.683,3.683A3.687,3.687,0,0,0,74.854,30.7Zm-5.62,0a1.937,1.937,0,1,1,1.937,1.937A1.939,1.939,0,0,1,69.234,30.7Z" transform="translate(-61.413 -23.869)" fill="#e31e24"/>
</svg>
