<svg id="Group_49506" data-name="Group 49506" xmlns="http://www.w3.org/2000/svg" width="47.487" height="60" viewBox="0 0 47.487 60">
  <g id="Group_49505" data-name="Group 49505">
    <path id="Path_41180" data-name="Path 41180" d="M94.451,39.2,90.93,38.165l-7.661-5V32.014a10.2,10.2,0,0,0,4.024-7.162,2.341,2.341,0,0,0,1.965-2.308V19.392c0-.012,0-.024,0-.036V15.361a1.733,1.733,0,0,0,.724-1.414V10.292l5.287-.9a1.874,1.874,0,0,0,.253-3.634L77.7.088a1.865,1.865,0,0,0-1.136,0L58.737,5.758a1.881,1.881,0,0,0-.584,3.272v4.78h-.044a1.822,1.822,0,0,0-1.82,1.82V18l-1.175,6.9a1.957,1.957,0,0,0,1.929,2.285h3.978A1.957,1.957,0,0,0,62.949,24.9L61.774,18V15.63a1.822,1.822,0,0,0-1.82-1.82h-.043V9.548l4.37.744v3.655A1.734,1.734,0,0,0,65,15.359l0,4.033v3.153a2.341,2.341,0,0,0,1.965,2.308,10.2,10.2,0,0,0,4.021,7.159v1.152l-7.66,5L59.811,39.2a8.937,8.937,0,0,0-6.424,8.58V50.4a.879.879,0,1,0,1.758,0V47.779a7.223,7.223,0,0,1,5.161-6.893l3.278-.962,13.1,7.783a.889.889,0,0,0,.9,0l13.1-7.783,3.278.962a7.224,7.224,0,0,1,5.16,6.893v8.489a1.977,1.977,0,0,1-1.975,1.975H93.268V54.454a.879.879,0,0,0-1.758,0v3.788H62.747V54.454a.879.879,0,1,0-1.758,0v3.788h-3.87a1.977,1.977,0,0,1-1.975-1.975v-1.76a.879.879,0,1,0-1.758,0v1.76A3.736,3.736,0,0,0,57.119,60H97.142a3.736,3.736,0,0,0,3.732-3.732V47.779a8.938,8.938,0,0,0-6.423-8.58ZM61.021,25.426H57.042a.2.2,0,0,1-.2-.232l1.063-6.239h2.244l1.063,6.238A.2.2,0,0,1,61.021,25.426Zm-1-9.8V17.2h-1.97V15.63a.063.063,0,0,1,.063-.063h1.845a.063.063,0,0,1,.063.063Zm13.971,28.1.35.538-8.973-5.332,5.7-3.72A18.462,18.462,0,0,0,73.987,43.731Zm-.006-3.794a22.6,22.6,0,0,0,6.3,0A16.787,16.787,0,0,1,78.8,42.772l-1.67,2.567-1.67-2.567A16.786,16.786,0,0,1,73.981,39.937Zm6.293,3.794A18.46,18.46,0,0,0,83.2,35.217l5.7,3.72-8.973,5.332Zm5.141-28.042H87.5v2.824H86.464a1.05,1.05,0,0,1-1.049-1.049V15.689ZM59.269,7.433l17.824-5.67a.116.116,0,0,1,.071,0L94.989,7.433a.1.1,0,0,1,.081.119c-.006.091-.059.1-.1.107l-5.893,1-2.213-.274a.879.879,0,1,0-.216,1.744l1.571.194v3.6H66.039v-3.6L75.133,9.2a16.28,16.28,0,0,1,3.991,0l3.442.426a.879.879,0,0,0,.216-1.744l-3.442-.426a18.03,18.03,0,0,0-4.423,0l-9.738,1.2-5.895-1c-.038-.007-.09-.015-.1-.107a.1.1,0,0,1,.081-.119Zm7.492,11.08V15.689h2.087v1.775A1.05,1.05,0,0,1,67.8,18.513H66.761ZM68.7,24.4a1.362,1.362,0,0,0-1.354-1.276.581.581,0,0,1-.58-.58V20.271H67.8A2.81,2.81,0,0,0,70.6,17.464V15.689H83.657v1.775a2.81,2.81,0,0,0,2.807,2.807H87.5v2.274a.581.581,0,0,1-.58.58A1.362,1.362,0,0,0,85.566,24.4a8.452,8.452,0,0,1-16.871,0Zm8.435,9.672a10.144,10.144,0,0,0,4.38-.993v.557a16.75,16.75,0,0,1-.593,4.415,20.753,20.753,0,0,1-7.574,0,16.749,16.749,0,0,1-.593-4.415c0-.019,0-.037,0-.055s0-.007,0-.011v-.493A10.146,10.146,0,0,0,77.131,34.073Z" transform="translate(-53.387 0)" fill="#e31e24"/>
  </g>
</svg>
